<svg width="220" height="220" viewBox="0 0 220 220" fill="none" xmlns="http://www.w3.org/2000/svg">
<path fill-rule="evenodd" clip-rule="evenodd" d="M48.6907 98.6471C75.4423 51.2156 88.8181 27.5 110 27.5C131.181 27.5 144.557 51.2156 171.309 98.6471L174.642 104.558C196.873 143.973 207.989 163.68 197.942 178.09C187.896 192.5 163.042 192.5 113.334 192.5H106.666C56.9576 192.5 32.1032 192.5 22.0574 178.09C12.0114 163.68 23.1267 143.973 45.3571 104.558L48.6907 98.6471ZM110 66.4583C113.797 66.4583 116.875 69.5364 116.875 73.3333V119.167C116.875 122.964 113.797 126.042 110 126.042C106.203 126.042 103.125 122.964 103.125 119.167V73.3333C103.125 69.5364 106.203 66.4583 110 66.4583ZM110 155.833C115.063 155.833 119.167 151.729 119.167 146.667C119.167 141.604 115.063 137.5 110 137.5C104.937 137.5 100.833 141.604 100.833 146.667C100.833 151.729 104.937 155.833 110 155.833Z" fill="#F32121"/>
</svg>
