<svg width="42" height="42" viewBox="0 0 42 42" fill="none" xmlns="http://www.w3.org/2000/svg">
<path d="M30.1875 27.5625H11.8125V24.9375H30.1875V27.5625ZM40.6875 9.1875V32.8125H1.3125V9.1875H40.6875ZM38.0625 11.8125H3.9375V30.1875H38.0625V11.8125ZM9.1875 14.4375H6.5625V17.0625H9.1875V14.4375ZM14.4375 14.4375H11.8125V17.0625H14.4375V14.4375ZM19.6875 14.4375H17.0625V17.0625H19.6875V14.4375ZM24.9375 14.4375H22.3125V17.0625H24.9375V14.4375ZM30.1875 14.4375H27.5625V17.0625H30.1875V14.4375ZM9.1875 19.6875H6.5625V22.3125H9.1875V19.6875ZM14.4375 19.6875H11.8125V22.3125H14.4375V19.6875ZM19.6875 19.6875H17.0625V22.3125H19.6875V19.6875ZM24.9375 19.6875H22.3125V22.3125H24.9375V19.6875ZM30.1875 19.6875H27.5625V22.3125H30.1875V19.6875ZM9.1875 24.9375H6.5625V27.5625H9.1875V24.9375ZM35.4375 14.4375H32.8125V17.0625H35.4375V14.4375ZM35.4375 19.6875H32.8125V22.3125H35.4375V19.6875ZM35.4375 24.9375H32.8125V27.5625H35.4375V24.9375Z" fill="white"/>
</svg>
