<svg width="33" height="32" viewBox="0 0 33 32" fill="none" xmlns="http://www.w3.org/2000/svg">
<path fill-rule="evenodd" clip-rule="evenodd" d="M22.3625 12.8354L15.3648 19.4983C14.718 20.1143 13.6703 20.1143 13.0235 19.4983L9.5271 16.1684C8.88195 15.5556 8.88195 14.5609 9.5271 13.9464C10.1706 13.3336 11.2167 13.3336 11.8602 13.9464L13.0284 15.059C13.6719 15.6718 14.7163 15.6718 15.3615 15.059L20.0293 10.6134C20.6728 9.999 21.7173 9.999 22.3625 10.6134C23.0076 11.2263 23.0076 12.221 22.3625 12.8354ZM29.7 0H3.3C1.47675 0 0 1.40643 0 3.14286V28.2857C0 30.0206 1.47675 31.4286 3.3 31.4286H29.7C31.5233 31.4286 33 30.0206 33 28.2857V3.14286C33 1.40643 31.5233 0 29.7 0Z" fill="#2EA147"/>
</svg>
