<svg width="40" height="38" viewBox="0 0 40 38" fill="none" xmlns="http://www.w3.org/2000/svg">
<path d="M39.5 19C39.5 29.1934 30.794 37.5 20 37.5C9.20597 37.5 0.5 29.1934 0.5 19C0.5 8.80659 9.20597 0.5 20 0.5C30.794 0.5 39.5 8.80659 39.5 19Z" fill="#4AB3FF" stroke="white"/>
<path fill-rule="evenodd" clip-rule="evenodd" d="M25.6312 13.3288C25.6312 17.3225 23.2163 20.75 20.0005 20.75C16.7823 20.75 14.3699 17.3225 14.3699 13.3275C14.3699 9.335 16.447 7 20.0005 7C23.5541 7 25.6312 9.33375 25.6312 13.3288ZM10.1181 29.6775C10.5999 30.25 12.6744 32 20.0005 32C27.3266 32 29.4 30.25 29.883 29.6787C29.9277 29.6238 29.9608 29.5604 29.9802 29.4922C29.9996 29.4241 30.0048 29.3527 29.9956 29.2825C29.8855 28.18 28.892 23.25 20.0005 23.25C11.1091 23.25 10.1156 28.18 10.0043 29.2825C9.9952 29.3528 10.0006 29.4242 10.0202 29.4924C10.0398 29.5605 10.0731 29.6227 10.1181 29.6775Z" fill="white"/>
</svg>
