<svg width="37" height="37" viewBox="0 0 37 37" fill="none" xmlns="http://www.w3.org/2000/svg">
<path d="M18.5 23.125V3.08334M18.5 3.08334L23.125 8.47918M18.5 3.08334L13.875 8.47918" stroke="white" stroke-width="3.75" stroke-linecap="round" stroke-linejoin="round"/>
<path d="M12.3333 33.917H24.6667C29.0271 33.917 31.2073 33.917 32.562 32.5623C33.9167 31.2078 33.9167 29.0274 33.9167 24.667V23.1253C33.9167 18.7648 33.9167 16.5846 32.562 15.23C31.3774 14.0454 29.5615 13.8967 26.2083 13.878M10.7917 13.878C7.4385 13.8967 5.62255 14.0454 4.43797 15.2299C3.08334 16.5846 3.08334 18.7648 3.08334 23.1253V24.667C3.08334 29.0274 3.08334 31.2078 4.43797 32.5623C4.90016 33.0245 5.45846 33.329 6.16667 33.5297" stroke="white" stroke-width="3.75" stroke-linecap="round"/>
</svg>
